<svg xmlns="http://www.w3.org/2000/svg" width="960" height="540" viewBox="0 0 960 540" fill="none"><path fill="#e0eaf0" d="M0 0h960v540H0z"/><rect x="100" y="63" width="760" height="414" rx="15" fill="#f7fafc" stroke="#b6cbd8"/><path d="M100 123h760" stroke="#d8e3ea"/><text x="139" y="102" fill="#2d5067" font-family="Arial,sans-serif" font-size="25" font-weight="bold">Data Lens</text><g fill="#e7eff4"><rect x="138" y="151" width="212" height="83" rx="8"/><rect x="374" y="151" width="212" height="83" rx="8"/><rect x="610" y="151" width="212" height="83" rx="8"/></g><g fill="#365d73" font-family="Arial,sans-serif" font-size="28"><text x="157" y="203">24,680</text><text x="394" y="203">86.4%</text><text x="630" y="203">+32.8%</text></g><rect x="138" y="260" width="443" height="180" rx="8" fill="#edf3f7"/><path d="M166 406h390m-390-47h390m-390-47h390" stroke="#d2dfe8"/><path d="m166 395 55-28 55 9 55-52 55 14 56-34 55 8 55-27" stroke="#4c95a0" stroke-width="5" stroke-linecap="round" stroke-linejoin="round"/><rect x="610" y="260" width="212" height="180" rx="8" fill="#edf3f7"/><g fill="#7092b0"><rect x="641" y="361" width="27" height="49" rx="3"/><rect x="682" y="330" width="27" height="80" rx="3"/><rect x="723" y="347" width="27" height="63" rx="3"/><rect x="764" y="302" width="27" height="108" rx="3"/></g></svg>
